<svg xmlns="http://www.w3.org/2000/svg" width="900" height="480" viewBox="0 0 900 480">
<rect x="0" y="0" width="100%" height="100%" fill="#ffffff"/>
<line x1="50" y1="50.0" x2="850" y2="50.0" stroke="#e6e6e6" stroke-width="1"/>
<line x1="50" y1="126.0" x2="850" y2="126.0" stroke="#e6e6e6" stroke-width="1"/>
<line x1="50" y1="202.0" x2="850" y2="202.0" stroke="#e6e6e6" stroke-width="1"/>
<line x1="50" y1="278.0" x2="850" y2="278.0" stroke="#e6e6e6" stroke-width="1"/>
<line x1="50" y1="354.0" x2="850" y2="354.0" stroke="#e6e6e6" stroke-width="1"/>
<line x1="50" y1="430.0" x2="850" y2="430.0" stroke="#e6e6e6" stroke-width="1"/>
<line x1="50" y1="50" x2="50" y2="430" stroke="#333"/>
<line x1="50" y1="430" x2="850" y2="430" stroke="#333"/>
<text x="450.0" y="470" text-anchor="middle" font-family="Arial" font-size="12">epoch</text>
<text x="15" y="240.0" transform="rotate(-90 15 240.0)" text-anchor="middle" font-family="Arial" font-size="12">loss</text>
<text x="450.0" y="20" text-anchor="middle" font-family="Arial" font-size="14">Consensus clean end: loss vs epoch</text>
<path d="M 50.00 70.38 L 50.88 81.11 L 51.73 68.10 L 52.61 69.31 L 53.45 84.70 L 54.33 110.94 L 55.18 119.92 L 56.06 116.37 L 56.90 145.27 L 57.78 153.16 L 58.63 146.93 L 59.51 160.03 L 60.35 175.28 L 61.20 187.40 L 62.08 188.52 L 62.92 200.36 L 63.80 208.49 L 64.65 229.93 L 65.53 222.44 L 66.37 234.28 L 67.26 236.03 L 68.10 248.42 L 68.98 246.08 L 69.82 252.90 L 70.67 272.69 L 71.55 288.66 L 72.39 283.68 L 73.27 291.80 L 74.12 311.28 L 75.00 301.85 L 75.84 314.96 L 76.73 318.41 L 77.57 319.08 L 78.45 331.06 L 79.29 325.50 L 80.18 322.40 L 81.02 323.12 L 81.86 327.61 L 82.74 338.96 L 83.59 327.56 L 84.47 339.90 L 85.31 338.20 L 86.20 336.22 L 87.04 348.02 L 87.92 341.92 L 88.76 333.75 L 89.65 346.41 L 90.49 346.50 L 91.37 350.31 L 92.22 343.81 L 93.06 340.66 L 93.94 340.71 L 94.78 343.90 L 95.67 351.39 L 96.51 351.97 L 97.39 355.43 L 98.23 357.71 L 99.12 348.97 L 99.96 353.32 L 100.84 356.73 L 101.69 358.75 L 102.53 354.98 L 103.41 353.72 L 104.25 356.59 L 105.14 366.46 L 105.98 357.94 L 106.86 352.11 L 107.70 354.75 L 108.59 364.00 L 109.43 364.09 L 110.31 354.26 L 111.16 364.13 L 112.04 365.07 L 112.88 369.11 L 113.72 375.53 L 114.61 364.09 L 115.45 353.86 L 116.33 374.85 L 117.17 363.01 L 118.06 365.75 L 118.90 372.07 L 119.78 364.94 L 120.63 365.79 L 121.51 365.30 L 122.35 359.51 L 123.19 372.83 L 124.08 365.61 L 124.92 361.08 L 125.80 381.05 L 126.65 375.57 L 127.53 377.64 L 128.37 366.24 L 129.25 356.64 L 130.10 358.39 L 130.98 372.34 L 131.82 378.58 L 132.70 381.54 L 133.55 368.12 L 134.39 369.25 L 135.27 374.63 L 136.12 367.36 L 137.00 383.24 L 137.84 364.13 L 138.72 385.13 L 139.57 372.79 L 140.45 359.28 L 141.29 383.11 L 142.17 371.58 L 143.02 380.28 L 143.90 372.39 L 144.74 366.82 L 145.59 380.33 L 146.47 376.60 L 147.31 372.66 L 148.19 379.34 L 149.04 383.51 L 149.92 367.23 L 150.76 373.82 L 151.65 383.74 L 152.49 381.13 L 153.37 368.75 L 154.21 379.34 L 155.06 379.03 L 155.94 362.83 L 156.78 385.17 L 157.66 384.77 L 158.51 372.39 L 159.39 379.70 L 160.23 384.14 L 161.12 374.72 L 161.96 386.25 L 162.84 383.51 L 163.68 385.94 L 164.57 376.33 L 165.41 369.78 L 166.25 389.35 L 167.13 372.88 L 167.98 380.60 L 168.86 377.90 L 169.70 386.52 L 170.59 378.89 L 171.43 380.01 L 172.31 375.98 L 173.15 384.59 L 174.04 381.58 L 174.88 381.40 L 175.76 390.11 L 176.61 374.32 L 177.45 382.48 L 178.33 383.11 L 179.17 384.50 L 180.06 383.11 L 180.90 380.15 L 181.78 386.97 L 182.62 386.70 L 183.51 382.88 L 184.35 373.42 L 185.23 389.08 L 186.08 389.39 L 186.92 380.46 L 187.80 383.51 L 188.64 382.97 L 189.53 388.67 L 190.37 387.24 L 191.25 390.56 L 192.09 389.30 L 192.98 381.13 L 193.82 383.33 L 194.70 388.58 L 195.55 381.40 L 196.43 389.48 L 197.27 388.85 L 198.11 374.94 L 199.00 392.89 L 199.84 388.31 L 200.72 390.29 L 201.57 381.00 L 202.45 383.69 L 203.29 378.22 L 204.17 391.99 L 205.02 388.90 L 205.90 390.11 L 206.74 389.21 L 207.58 382.88 L 208.47 385.04 L 209.31 388.36 L 210.19 387.06 L 211.04 385.53 L 211.92 385.94 L 212.76 387.73 L 213.64 390.56 L 214.49 388.49 L 215.37 385.13 L 216.21 391.81 L 217.09 390.42 L 217.94 379.79 L 218.78 389.84 L 219.66 387.28 L 220.51 390.65 L 221.39 394.42 L 222.23 387.64 L 223.11 385.26 L 223.96 387.87 L 224.84 392.17 L 225.68 390.42 L 226.57 382.66 L 227.41 394.55 L 228.29 390.56 L 229.13 397.29 L 229.98 383.83 L 230.86 386.38 L 231.70 391.72 L 232.58 387.60 L 233.43 385.89 L 234.31 389.75 L 235.15 391.59 L 236.04 388.67 L 236.88 398.81 L 237.76 384.28 L 238.60 385.44 L 239.45 397.47 L 240.33 394.86 L 241.17 387.28 L 242.05 392.35 L 242.90 391.45 L 243.78 391.27 L 244.62 394.19 L 245.51 394.60 L 246.35 391.23 L 247.23 392.44 L 248.07 391.14 L 248.96 389.03 L 249.80 389.03 L 250.64 395.90 L 251.52 390.20 L 252.37 391.77 L 253.25 392.80 L 254.09 391.77 L 254.98 381.67 L 255.82 392.85 L 256.70 397.74 L 257.54 393.70 L 258.43 394.46 L 259.27 392.98 L 260.15 387.82 L 261.00 390.29 L 261.84 400.02 L 262.72 396.79 L 263.56 396.57 L 264.45 388.99 L 265.29 395.94 L 266.17 390.65 L 267.01 391.41 L 267.90 389.26 L 268.74 396.12 L 269.62 398.86 L 270.47 387.87 L 271.31 400.38 L 272.19 388.81 L 273.03 399.80 L 273.92 384.37 L 274.76 393.43 L 275.64 389.39 L 276.48 397.74 L 277.37 399.35 L 278.21 392.58 L 279.09 395.90 L 279.94 390.47 L 280.82 395.76 L 281.66 399.44 L 282.50 389.75 L 283.39 389.30 L 284.23 397.20 L 285.11 395.54 L 285.96 400.07 L 286.84 404.42 L 287.68 397.29 L 288.56 393.83 L 289.41 390.38 L 290.29 392.85 L 291.13 395.85 L 292.01 394.77 L 292.86 399.58 L 293.70 398.41 L 294.58 396.84 L 295.43 392.94 L 296.31 396.84 L 297.15 392.89 L 298.03 401.10 L 298.88 399.49 L 299.76 398.45 L 300.60 391.59 L 301.48 391.01 L 302.33 396.61 L 303.17 397.06 L 304.05 395.49 L 304.90 392.94 L 305.78 399.71 L 306.62 397.15 L 307.50 392.53 L 308.35 405.05 L 309.23 396.03 L 310.07 396.48 L 310.96 395.90 L 311.80 396.30 L 312.68 400.16 L 313.52 395.49 L 314.37 400.34 L 315.25 402.00 L 316.09 402.85 L 316.97 391.95 L 317.82 393.56 L 318.70 393.70 L 319.54 398.36 L 320.43 397.92 L 321.27 398.23 L 322.15 399.71 L 322.99 399.84 L 323.84 395.36 L 324.72 393.70 L 325.56 400.79 L 326.44 399.75 L 327.29 394.77 L 328.17 399.49 L 329.01 400.43 L 329.90 400.83 L 330.74 401.77 L 331.62 401.28 L 332.46 400.43 L 333.35 391.63 L 334.19 402.27 L 335.03 395.90 L 335.91 395.85 L 336.76 400.07 L 337.64 403.25 L 338.48 397.24 L 339.37 402.63 L 340.21 399.71 L 341.09 401.33 L 341.93 394.01 L 342.82 401.33 L 343.66 396.26 L 344.54 397.06 L 345.39 400.11 L 346.23 398.77 L 347.11 400.79 L 347.95 397.06 L 348.84 403.21 L 349.68 398.36 L 350.56 402.99 L 351.40 401.73 L 352.29 398.09 L 353.13 400.92 L 354.01 396.43 L 354.86 402.67 L 355.70 400.02 L 356.58 394.55 L 357.42 404.87 L 358.31 399.13 L 359.15 400.56 L 360.03 401.73 L 360.87 398.32 L 361.76 401.41 L 362.60 400.65 L 363.48 397.06 L 364.33 403.21 L 365.21 398.23 L 366.05 400.88 L 366.89 403.03 L 367.78 398.05 L 368.62 397.42 L 369.50 404.20 L 370.35 397.06 L 371.23 405.77 L 372.07 405.45 L 372.95 400.43 L 373.80 396.12 L 374.68 401.55 L 375.52 398.14 L 376.40 397.65 L 377.25 403.93 L 378.09 400.88 L 378.97 403.88 L 379.82 399.35 L 380.70 399.40 L 381.54 402.00 L 382.42 406.13 L 383.27 400.61 L 384.15 403.84 L 384.99 401.55 L 385.87 401.15 L 386.72 398.59 L 387.56 402.04 L 388.44 399.62 L 389.29 401.68 L 390.17 404.87 L 391.01 399.22 L 391.89 404.06 L 392.74 402.31 L 393.62 402.81 L 394.46 401.10 L 395.35 403.30 L 396.19 400.02 L 397.07 398.95 L 397.91 406.22 L 398.76 400.65 L 399.64 404.24 L 400.48 400.07 L 401.36 397.47 L 402.21 406.53 L 403.09 402.13 L 403.93 400.92 L 404.82 404.51 L 405.66 401.41 L 406.54 403.66 L 407.38 402.40 L 408.23 404.38 L 409.11 402.99 L 409.95 406.26 L 410.83 403.21 L 411.68 400.16 L 412.56 405.45 L 413.40 404.38 L 414.29 400.56 L 415.13 400.97 L 416.01 406.22 L 416.85 401.10 L 417.74 399.84 L 418.58 405.68 L 419.42 403.03 L 420.30 399.17 L 421.15 400.79 L 422.03 406.62 L 422.87 404.42 L 423.76 401.37 L 424.60 403.79 L 425.48 401.28 L 426.32 401.59 L 427.21 405.00 L 428.05 402.85 L 428.93 403.70 L 429.78 400.52 L 430.62 406.31 L 431.50 405.68 L 432.34 405.81 L 433.23 408.15 L 434.07 398.32 L 434.95 403.25 L 435.79 400.74 L 436.68 405.27 L 437.52 401.50 L 438.40 407.47 L 439.25 400.20 L 440.09 404.78 L 440.97 405.45 L 441.81 405.68 L 442.70 403.34 L 443.54 404.24 L 444.42 400.79 L 445.26 403.88 L 446.15 406.66 L 446.99 403.97 L 447.87 404.69 L 448.72 407.74 L 449.60 403.03 L 450.44 405.63 L 451.28 404.47 L 452.17 405.27 L 453.01 405.99 L 453.89 403.75 L 454.74 402.72 L 455.62 406.22 L 456.46 401.19 L 457.34 403.79 L 458.19 405.99 L 459.07 403.70 L 459.91 402.90 L 460.79 409.67 L 461.64 403.43 L 462.48 408.73 L 463.36 402.99 L 464.21 407.70 L 465.09 404.82 L 465.93 402.94 L 466.81 404.42 L 467.66 397.06 L 468.54 406.75 L 469.38 405.23 L 470.26 408.01 L 471.11 402.54 L 471.95 406.84 L 472.83 404.82 L 473.68 405.63 L 474.56 409.18 L 475.40 401.37 L 476.28 407.11 L 477.13 404.06 L 478.01 405.72 L 478.85 405.99 L 479.74 403.57 L 480.58 408.95 L 481.46 405.50 L 482.30 402.09 L 483.15 403.52 L 484.03 402.72 L 484.87 406.31 L 485.75 405.36 L 486.60 404.91 L 487.48 406.53 L 488.32 403.97 L 489.21 407.16 L 490.05 403.70 L 490.93 405.86 L 491.77 400.70 L 492.66 405.00 L 493.50 406.66 L 494.34 408.55 L 495.22 404.20 L 496.07 404.91 L 496.95 407.34 L 497.79 406.80 L 498.68 406.62 L 499.52 404.56 L 500.40 406.26 L 501.24 403.97 L 502.13 405.45 L 502.97 410.43 L 503.81 400.29 L 504.70 408.15 L 505.54 408.46 L 506.42 407.38 L 507.26 405.77 L 508.15 408.01 L 508.99 407.38 L 509.87 401.33 L 510.71 409.31 L 511.60 405.09 L 512.44 405.99 L 513.32 406.84 L 514.17 405.23 L 515.01 404.51 L 515.89 403.39 L 516.73 408.23 L 517.62 405.72 L 518.46 409.94 L 519.34 401.73 L 520.18 411.02 L 521.07 404.91 L 521.91 407.92 L 522.79 409.36 L 523.64 407.07 L 524.48 408.28 L 525.36 405.59 L 526.20 406.40 L 527.09 402.13 L 527.93 406.04 L 528.81 407.47 L 529.65 405.77 L 530.54 409.09 L 531.38 405.95 L 532.26 405.32 L 533.11 406.44 L 533.99 406.62 L 534.83 406.35 L 535.67 410.16 L 536.56 407.70 L 537.40 405.18 L 538.28 405.63 L 539.13 406.44 L 540.01 406.98 L 540.85 405.05 L 541.73 407.97 L 542.58 407.83 L 543.46 410.39 L 544.30 404.33 L 545.18 408.01 L 546.03 404.33 L 546.87 409.45 L 547.75 402.85 L 548.60 409.13 L 549.48 406.26 L 550.32 408.28 L 551.20 406.57 L 552.05 408.37 L 552.93 410.66 L 553.77 402.18 L 554.65 409.18 L 555.50 409.63 L 556.34 406.40 L 557.22 402.85 L 558.07 410.39 L 558.95 409.36 L 559.79 404.29 L 560.67 409.81 L 561.52 404.51 L 562.40 409.63 L 563.24 404.47 L 564.13 407.92 L 564.97 407.34 L 565.85 407.79 L 566.69 410.34 L 567.54 408.77 L 568.42 401.64 L 569.26 409.31 L 570.14 407.43 L 570.99 409.00 L 571.87 407.65 L 572.71 409.27 L 573.60 406.80 L 574.44 404.82 L 575.32 411.82 L 576.16 405.54 L 577.05 405.72 L 577.89 408.19 L 578.73 409.85 L 579.61 407.65 L 580.46 408.95 L 581.34 409.00 L 582.18 407.25 L 583.07 405.23 L 583.91 406.04 L 584.79 408.91 L 585.63 408.68 L 586.52 406.71 L 587.36 408.41 L 588.20 409.31 L 589.09 405.81 L 589.93 407.16 L 590.81 410.48 L 591.65 407.79 L 592.54 406.26 L 593.38 407.11 L 594.26 409.40 L 595.10 409.31 L 595.99 410.48 L 596.83 407.38 L 597.71 406.71 L 598.56 404.91 L 599.40 408.50 L 600.28 407.65 L 601.12 406.84 L 602.01 409.36 L 602.85 407.25 L 603.73 409.63 L 604.57 408.73 L 605.46 406.44 L 606.30 406.80 L 607.18 407.20 L 608.03 408.86 L 608.87 406.49 L 609.75 409.89 L 610.59 408.91 L 611.48 407.70 L 612.32 408.64 L 613.20 411.24 L 614.04 408.23 L 614.93 405.50 L 615.77 410.79 L 616.65 409.27 L 617.50 406.98 L 618.38 405.36 L 619.22 410.03 L 620.06 411.38 L 620.95 407.56 L 621.79 407.07 L 622.67 409.49 L 623.52 407.97 L 624.40 403.21 L 625.24 409.76 L 626.12 409.22 L 626.97 410.79 L 627.85 411.06 L 628.69 408.01 L 629.57 409.58 L 630.42 407.65 L 631.26 407.07 L 632.14 409.40 L 632.99 410.48 L 633.87 406.17 L 634.71 409.36 L 635.59 409.36 L 636.44 410.25 L 637.32 411.24 L 638.16 406.53 L 639.04 407.74 L 639.89 408.23 L 640.73 410.66 L 641.61 410.97 L 642.46 410.12 L 643.34 406.62 L 644.18 408.23 L 645.06 409.49 L 645.91 408.32 L 646.79 410.34 L 647.63 406.66 L 648.52 409.49 L 649.36 409.58 L 650.24 409.40 L 651.08 407.61 L 651.93 408.50 L 652.81 411.11 L 653.65 409.94 L 654.53 407.83 L 655.38 408.86 L 656.26 409.09 L 657.10 409.40 L 657.99 409.00 L 658.83 409.45 L 659.71 409.31 L 660.55 407.92 L 661.44 408.95 L 662.28 408.46 L 663.12 411.78 L 664.00 410.34 L 664.85 411.38 L 665.73 408.23 L 666.57 405.86 L 667.46 405.77 L 668.30 412.77 L 669.18 409.49 L 670.02 406.75 L 670.91 410.39 L 671.75 409.04 L 672.59 410.25 L 673.48 410.57 L 674.32 405.63 L 675.20 408.77 L 676.04 408.68 L 676.93 409.63 L 677.77 409.72 L 678.65 409.67 L 679.49 409.58 L 680.38 407.79 L 681.22 410.34 L 682.10 408.91 L 682.95 409.04 L 683.79 408.46 L 684.67 409.00 L 685.51 411.82 L 686.40 409.31 L 687.24 410.30 L 688.12 410.07 L 688.96 409.22 L 689.85 409.94 L 690.69 410.97 L 691.57 407.25 L 692.42 411.38 L 693.30 410.75 L 694.14 407.65 L 694.98 404.33 L 695.87 409.98 L 696.71 410.66 L 697.59 407.83 L 698.43 406.89 L 699.32 411.51 L 700.16 409.22 L 701.04 410.48 L 701.89 408.64 L 702.77 408.95 L 703.61 408.06 L 704.45 409.81 L 705.34 411.33 L 706.18 411.38 L 707.06 407.07 L 707.91 409.27 L 708.79 407.34 L 709.63 411.06 L 710.51 408.15 L 711.36 412.41 L 712.24 411.51 L 713.08 406.17 L 713.96 410.07 L 714.81 408.01 L 715.65 411.29 L 716.53 409.40 L 717.38 409.72 L 718.26 407.61 L 719.10 410.07 L 719.98 410.93 L 720.83 411.24 L 721.71 407.70 L 722.55 409.09 L 723.43 409.18 L 724.28 407.34 L 725.12 411.20 L 726.00 410.07 L 726.85 410.66 L 727.73 408.15 L 728.57 411.38 L 729.45 409.27 L 730.30 409.49 L 731.18 408.95 L 732.02 407.97 L 732.91 411.82 L 733.75 408.86 L 734.63 407.61 L 735.47 411.20 L 736.32 410.57 L 737.20 410.25 L 738.04 409.58 L 738.92 408.15 L 739.77 410.52 L 740.65 407.29 L 741.49 409.67 L 742.38 408.73 L 743.22 411.78 L 744.10 410.97 L 744.94 409.45 L 745.83 411.20 L 746.67 410.07 L 747.51 410.43 L 748.39 409.89 L 749.24 409.76 L 750.12 408.41 L 750.96 409.81 L 751.85 408.82 L 752.69 409.40 L 753.57 411.51 L 754.41 409.81 L 755.30 409.09 L 756.14 407.38 L 756.98 408.19 L 757.87 411.51 L 758.71 408.64 L 759.59 411.47 L 760.43 406.66 L 761.32 410.16 L 762.16 410.12 L 763.04 410.34 L 763.88 411.38 L 764.77 410.75 L 765.61 408.46 L 766.49 410.75 L 767.34 408.15 L 768.18 405.90 L 769.06 409.49 L 769.90 410.79 L 770.79 409.27 L 771.63 411.87 L 772.51 408.37 L 773.35 406.17 L 774.24 411.24 L 775.08 410.61 L 775.96 411.20 L 776.81 409.31 L 777.69 409.04 L 778.53 409.27 L 779.37 410.57 L 780.26 407.74 L 781.10 410.34 L 781.98 409.36 L 782.83 409.89 L 783.71 412.09 L 784.55 408.15 L 785.43 412.41 L 786.28 410.21 L 787.16 411.11 L 788.00 410.75 L 788.84 409.27 L 789.73 408.68 L 790.57 410.21 L 791.45 410.25 L 792.30 409.49 L 793.18 408.37 L 794.02 408.55 L 794.90 411.06 L 795.75 411.78 L 796.63 407.47 L 797.47 409.89 L 798.35 410.61 L 799.20 409.63 L 800.04 407.70 L 800.92 408.41 L 801.77 411.15 L 802.65 409.76 L 803.49 411.02 L 804.37 408.55 L 805.22 410.43 L 806.10 409.63 L 806.94 412.09 L 807.83 409.98 L 808.67 408.23 L 809.51 409.63 L 810.39 411.38 L 811.24 412.50 L 812.12 410.52 L 812.96 406.44 L 813.84 410.03 L 814.69 410.93 L 815.57 409.89 L 816.41 409.36 L 817.30 408.55 L 818.14 408.86 L 819.02 411.06 L 819.86 411.29 L 820.71 411.29 L 821.59 410.03 L 822.43 408.28 L 823.31 410.16 L 824.16 411.15 L 825.04 410.61 L 825.88 408.59 L 826.77 407.92 L 827.61 410.57 L 828.49 409.04 L 829.33 411.47 L 830.22 408.95 L 831.06 411.15 L 831.90 411.06 L 832.78 408.37 L 833.63 410.25 L 834.51 409.76 L 835.35 412.09 L 836.24 410.21 L 837.08 410.66 L 837.96 410.66 L 838.80 407.02 L 839.69 409.67 L 840.53 410.34 L 841.37 408.15 L 842.26 411.02 L 843.10 410.34 L 843.98 410.70 L 844.82 410.93 L 845.71 410.16 L 846.55 409.00 L 847.43 410.70 L 848.27 409.13 L 849.16 410.34 L 850.00 410.03" fill="none" stroke="#1f77b4" stroke-width="1.2" opacity="0.8"/>
<path d="M 53.17 141.42 L 57.18 178.53 L 61.20 217.18 L 65.21 249.97 L 69.22 287.93 L 73.23 329.89 L 77.25 339.18 L 81.26 348.72 L 85.27 353.92 L 89.29 360.38 L 93.30 361.93 L 97.31 363.36 L 101.32 369.68 L 105.34 368.72 L 109.35 366.90 L 113.36 371.33 L 117.38 372.33 L 121.39 368.00 L 125.40 369.03 L 129.41 373.47 L 133.43 370.33 L 137.44 372.52 L 141.45 369.60 L 145.47 367.74 L 149.48 372.03 L 153.49 371.32 L 157.50 373.40 L 161.52 368.95 L 165.53 373.17 L 169.54 371.30 L 173.56 370.28 L 177.57 369.23 L 181.58 372.75 L 185.59 371.92 L 189.61 372.24 L 193.62 369.69 L 197.63 370.66 L 201.65 372.03 L 205.66 371.24 L 209.67 370.62 L 213.68 370.48 L 217.70 367.56 L 221.71 369.50 L 225.72 366.86 L 229.74 368.84 L 233.75 369.70 L 237.76 370.96 L 241.77 367.96 L 245.79 370.81 L 249.80 369.15 L 253.81 368.85 L 257.83 370.69 L 261.84 366.95 L 265.85 368.82 L 269.86 368.51 L 273.88 368.86 L 277.89 368.93 L 281.90 366.63 L 285.91 368.22 L 289.93 369.34 L 293.94 365.01 L 297.95 366.01 L 301.97 364.33 L 305.98 367.60 L 309.99 365.34 L 314.00 363.03 L 318.02 366.03 L 322.03 364.12 L 326.04 363.43 L 330.06 365.06 L 334.07 360.89 L 338.08 362.48 L 342.09 362.64 L 346.11 362.54 L 350.12 360.52 L 354.13 360.75 L 358.15 362.37 L 362.16 360.45 L 366.17 361.34 L 370.18 362.15 L 374.20 360.85 L 378.21 360.09 L 382.22 362.01 L 386.24 359.80 L 390.25 360.46 L 394.26 359.58 L 398.27 361.78 L 402.29 361.91 L 406.30 360.07 L 410.31 357.78 L 414.33 357.11 L 418.34 358.34 L 422.35 359.46 L 426.36 357.54 L 430.38 357.17 L 434.39 358.33 L 438.40 358.24 L 442.42 356.52 L 446.43 356.89 L 450.44 357.61 L 454.45 357.48 L 458.47 358.51 L 462.48 356.11 L 466.49 357.05 L 470.51 357.35 L 474.52 357.00 L 478.53 356.23 L 482.54 356.74 L 486.56 355.86 L 490.57 354.03 L 494.58 355.06 L 498.60 354.53 L 502.61 354.11 L 506.62 353.91 L 510.63 353.28 L 514.65 353.60 L 518.66 353.99 L 522.67 353.88 L 526.69 353.84 L 530.70 353.26 L 534.71 351.74 L 538.72 351.09 L 542.74 352.20 L 546.75 352.36 L 550.76 351.64 L 554.78 351.99 L 557.22 352.13 L 565.85 350.12 L 574.44 351.12 L 583.07 349.60 L 591.65 349.89 L 600.28 351.68 L 608.87 350.68 L 617.50 351.25 L 626.12 350.06 L 634.71 349.04 L 643.34 349.21 L 651.93 347.94 L 660.55 347.14 L 669.18 346.79 L 677.77 348.17 L 686.40 346.98 L 694.98 346.43 L 703.61 346.68 L 712.24 346.34 L 720.83 346.32 L 729.45 345.71 L 738.04 345.76 L 746.67 345.54 L 755.30 345.96 L 763.88 345.72 L 772.51 346.16 L 781.10 345.60 L 789.73 345.19 L 798.35 344.70 L 806.94 344.74 L 815.57 344.71 L 824.16 345.07 L 832.78 344.92 L 841.37 344.85 L 850.00 344.85" fill="none" stroke="#ff7f0e" stroke-width="1.6" opacity="0.9"/>
<rect x="60" y="60" width="150" height="45" fill="#fff" stroke="#ddd"/>
<line x1="70" y1="75" x2="100" y2="75" stroke="#1f77b4" stroke-width="1.2"/>
<text x="110" y="79" font-family="Arial" font-size="12">train loss</text>
<line x1="70" y1="93" x2="100" y2="93" stroke="#ff7f0e" stroke-width="1.6"/>
<text x="110" y="97" font-family="Arial" font-size="12">eval loss</text>
</svg>